<svg width="60" height="60" viewBox="0 0 60 60" fill="none" xmlns="http://www.w3.org/2000/svg">
<path d="M28.1369 55.2713C25.0167 55.5085 21.9245 54.5381 19.4993 52.5606C17.0741 50.5832 15.5011 47.7497 15.1053 44.6456C19.3466 46.616 22.8548 46.6181 25.5514 43.2649C26.5828 42.139 27.3976 41.25 29.0625 41.25C32.556 41.3604 35.9181 42.6073 38.6389 44.8013C38.8353 44.9483 39.0815 45.0125 39.3247 44.98C39.5679 44.9475 39.7886 44.821 39.9396 44.6276C40.0906 44.4342 40.1597 44.1894 40.1322 43.9456C40.1047 43.7018 39.9827 43.4785 39.7924 43.3236C36.7421 40.8724 32.974 39.4857 29.0625 39.375C22.2521 39.8073 25.0511 47.3402 15.0241 42.5447C15.1542 40.0273 16.0576 37.6112 17.611 35.626C19.1645 33.6408 21.2925 32.1831 23.7048 31.4515C23.8984 31.3939 24.0682 31.2753 24.189 31.1134C24.3097 30.9515 24.375 30.755 24.375 30.553V13.6405C24.375 13.4312 24.3049 13.2278 24.176 13.0629C24.0471 12.898 23.8667 12.781 23.6636 12.7304C22.0697 12.3345 21.5931 11.8103 21.5606 11.7358C22.7789 9.86263 31.6041 9.91734 32.8143 11.7014C32.7818 11.8104 32.3052 12.3345 30.7113 12.7305C30.5082 12.781 30.3278 12.898 30.1989 13.0629C30.07 13.2278 30 13.4311 30 13.6404V30.5529C29.9814 31.4064 30.9366 31.5082 31.5454 31.7495C31.6766 31.7928 31.8156 31.8074 31.9529 31.7923C32.0902 31.7771 32.2227 31.7326 32.3413 31.6617C32.4598 31.5908 32.5618 31.4952 32.6401 31.3814C32.7184 31.2676 32.7714 31.1383 32.7953 31.0022C32.8192 30.8661 32.8135 30.7265 32.7786 30.5928C32.7438 30.4591 32.6805 30.3345 32.5932 30.2274C32.5059 30.1204 32.3966 30.0334 32.2726 29.9723C32.1487 29.9113 32.0131 29.8776 31.875 29.8737V14.3487C33.6959 13.7618 34.6875 12.8417 34.6875 11.7188C34.6875 9.46426 30.7997 8.4375 27.1875 8.4375C23.5753 8.4375 19.6875 9.46426 19.6875 11.7188C19.6875 12.8416 20.679 13.7617 22.5 14.3486V29.8727C20.8606 30.4566 19.3451 31.3422 18.0317 32.4839C17.3412 32.0049 16.5935 31.6142 15.8061 31.3206V20.6204C17.5328 20.0102 17.8125 19.0865 17.8125 18.5531C17.8125 16.7464 14.9872 15.9375 12.1875 15.9375C9.38778 15.9375 6.56247 16.7464 6.56247 18.5531C6.56247 19.0864 6.84216 20.0102 8.56885 20.6204V31.3234C-3.79074 36.5249 2.50035 54.4785 15.4006 50.7694C16.7818 52.8993 18.7138 54.6157 20.9916 55.7365C23.2694 56.8572 25.808 57.3406 28.3383 57.1353C28.5819 57.1042 28.8035 56.9788 28.9556 56.7861C29.1077 56.5933 29.1781 56.3486 29.1517 56.1045C29.1253 55.8604 29.0043 55.6364 28.8145 55.4806C28.6247 55.3248 28.3814 55.2496 28.1369 55.2713ZM9.77413 32.8954C9.96763 32.8376 10.1373 32.719 10.258 32.5571C10.3787 32.3952 10.4438 32.1987 10.4438 31.9968V19.9219C10.4438 19.7125 10.3736 19.5092 10.2446 19.3443C10.1157 19.1794 9.93521 19.0623 9.73202 19.0118C9.3169 18.9249 8.91956 18.7681 8.55694 18.5481C9.68336 17.9937 10.9341 17.7403 12.1875 17.8125C13.4408 17.7403 14.6916 17.9937 15.818 18.5481C15.4554 18.7681 15.058 18.9249 14.6429 19.0118C14.4397 19.0623 14.2593 19.1794 14.1303 19.3443C14.0013 19.5092 13.9312 19.7125 13.9311 19.9219V31.9968C13.9311 32.1993 13.9967 32.3964 14.1181 32.5586C14.2394 32.7207 14.4101 32.8392 14.6045 32.8963C15.3336 33.1125 16.029 33.4292 16.6707 33.8373C15.5688 35.0861 14.6945 36.5186 14.0877 38.0696C8.66865 37.7234 10.5904 43.7924 3.77406 40.399C3.89874 38.6884 4.53882 37.0558 5.60993 35.7163C6.68103 34.3767 8.13289 33.3932 9.77413 32.8954ZM12.1875 49.4156C10.2153 49.4124 8.30644 48.7191 6.79181 47.4561C5.27717 46.193 4.25226 44.4397 3.89473 42.5002C6.79209 43.7979 9.42349 43.5355 11.2147 41.2622C11.9999 40.4055 12.499 39.9206 13.505 39.9123C12.7779 42.9944 13.1195 46.232 14.4736 49.0946C13.7301 49.3071 12.9607 49.4151 12.1875 49.4156Z" fill="#0B0B2D"/>
<path d="M56.25 49.6875H54.2281C59.6989 40.7038 53.4975 28.3993 43.125 27.3266V26.25C43.1245 25.7529 42.9268 25.2762 42.5753 24.9247C42.2238 24.5732 41.7471 24.3755 41.25 24.375V21.5625C41.25 21.3139 41.1512 21.0754 40.9754 20.8996C40.7996 20.7238 40.5611 20.625 40.3125 20.625H36.5625C36.3139 20.625 36.0754 20.7238 35.8996 20.8996C35.7238 21.0754 35.625 21.3139 35.625 21.5625V24.375C35.1279 24.3755 34.6512 24.5732 34.2997 24.9247C33.9482 25.2762 33.7505 25.7529 33.75 26.25V37.5C33.7505 37.9971 33.9482 38.4738 34.2997 38.8253C34.6512 39.1768 35.1279 39.3745 35.625 39.375H41.25C41.7471 39.3745 42.2238 39.1768 42.5753 38.8253C42.9268 38.4738 43.1245 37.9971 43.125 37.5V33.0107C50.9244 34.5548 53.3393 44.9421 46.8496 49.6875H33.75V47.8125H44.0625C44.308 47.8077 44.5418 47.7068 44.7137 47.5315C44.8856 47.3562 44.9819 47.1205 44.9819 46.875C44.9819 46.6294 44.8856 46.3937 44.7136 46.2184C44.5417 46.0431 44.3079 45.9423 44.0624 45.9375H32.8125C32.5639 45.9375 32.3254 46.0363 32.1496 46.2121C31.9738 46.3879 31.875 46.6264 31.875 46.875V49.6875C31.3779 49.688 30.9012 49.8857 30.5497 50.2372C30.1982 50.5887 30.0005 51.0654 30 51.5625V55.3125C30.0005 55.8096 30.1982 56.2863 30.5497 56.6378C30.9012 56.9893 31.3779 57.187 31.875 57.1875H56.25C56.7471 57.187 57.2238 56.9893 57.5753 56.6378C57.9268 56.2863 58.1245 55.8096 58.125 55.3125V51.5625C58.1245 51.0654 57.9268 50.5887 57.5753 50.2372C57.2238 49.8857 56.7471 49.688 56.25 49.6875ZM37.5 22.5H39.375V24.375H37.5V22.5ZM41.25 37.5H35.625V26.25H41.25V27.1875C40.5096 27.1958 39.8023 27.4958 39.2816 28.0224C38.761 28.5489 38.469 29.2595 38.469 30C38.469 30.7405 38.761 31.4511 39.2816 31.9776C39.8023 32.5042 40.5096 32.8042 41.25 32.8125V37.5ZM52.5 42.1875C52.4841 39.3857 51.4294 36.6894 49.5399 34.6205C47.6504 32.5515 45.0606 31.2572 42.2717 30.9879C41.5043 30.9216 40.3362 31.0923 40.3125 29.9999C40.3265 29.0198 41.3776 28.9863 42.1266 29.0983C52.145 29.6171 57.8936 41.5508 52.0084 49.6875H49.6192C51.4697 47.6272 52.4954 44.9568 52.5 42.1875ZM31.875 55.3125V51.5625H56.25L56.2514 55.3125H31.875Z" fill="#0B0B2D"/>
<path d="M10.3125 10.3123C10.3208 11.0528 10.6208 11.76 11.1474 12.2807C11.6739 12.8013 12.3846 13.0933 13.125 13.0933C13.8655 13.0933 14.5761 12.8013 15.1027 12.2806C15.6292 11.76 15.9292 11.0527 15.9375 10.3122C15.9292 9.57179 15.6292 8.86451 15.1026 8.34387C14.5761 7.82323 13.8654 7.53124 13.125 7.53125C12.3845 7.53126 11.6739 7.82328 11.1473 8.34393C10.6208 8.86459 10.3208 9.57188 10.3125 10.3123ZM14.0625 10.3123C14.0577 10.5578 13.9568 10.7916 13.7815 10.9635C13.6062 11.1354 13.3705 11.2317 13.125 11.2317C12.8794 11.2317 12.6437 11.1354 12.4684 10.9635C12.2931 10.7915 12.1923 10.5577 12.1875 10.3123C12.1923 10.0668 12.2932 9.83298 12.4685 9.66108C12.6438 9.48917 12.8795 9.39288 13.125 9.39289C13.3706 9.39289 13.6063 9.4892 13.7816 9.66112C13.9569 9.83303 14.0577 10.0668 14.0625 10.3123Z" fill="#0B0B2D"/>
<path d="M15.9375 5.62482C15.9458 6.36525 16.2458 7.07253 16.7724 7.59317C17.2989 8.11381 18.0096 8.40581 18.75 8.4058C19.4905 8.40579 20.2011 8.11377 20.7277 7.59311C21.2542 7.07246 21.5542 6.36517 21.5625 5.62473C21.5542 4.88429 21.2542 4.17701 20.7276 3.65637C20.2011 3.13573 19.4904 2.84374 18.75 2.84375C18.0095 2.84376 17.2989 3.13578 16.7723 3.65643C16.2458 4.17709 15.9458 4.88438 15.9375 5.62482ZM19.6875 5.62482C19.6827 5.87029 19.5818 6.1041 19.4065 6.276C19.2312 6.44791 18.9955 6.5442 18.75 6.54419C18.5045 6.54418 18.2687 6.44788 18.0934 6.27596C17.9181 6.10405 17.8173 5.87024 17.8125 5.62476C17.8173 5.37928 17.9182 5.14548 18.0935 4.97358C18.2688 4.80167 18.5045 4.70538 18.75 4.70539C18.9955 4.70539 19.2313 4.8017 19.4066 4.97361C19.5819 5.14553 19.6827 5.37934 19.6875 5.62482Z" fill="#0B0B2D"/>
</svg>
