<svg width="78" height="62" viewBox="0 0 78 62" fill="none" xmlns="http://www.w3.org/2000/svg">
<mask id="path-1-inside-1_965_12358" fill="white">
<path fill-rule="evenodd" clip-rule="evenodd" d="M71.1427 32.5H52.0002C50.2763 32.5 48.623 31.8151 47.404 30.5962C46.185 29.3772 45.5002 27.7239 45.5002 26V6.49994C45.5002 4.77603 46.185 3.12273 47.404 1.90374C48.623 0.684757 50.2763 -6.48499e-05 52.0002 -6.48499e-05H71.5002C73.2241 -6.48499e-05 74.8774 0.684757 76.0964 1.90374C77.3154 3.12273 78.0002 4.77603 78.0002 6.49994V28.1125C77.9983 33.997 76.5437 39.7901 73.7657 44.9776C70.9877 50.1652 66.9721 54.5867 62.0752 57.85L56.2577 61.75L52.6827 56.355L58.5002 52.455C61.8792 50.1907 64.7487 47.2465 66.9256 43.8105C69.1024 40.3746 70.5387 36.5224 71.1427 32.5ZM25.6426 32.5H6.50009C4.77618 32.5 3.12288 31.8151 1.90389 30.5962C0.684906 29.3772 8.39233e-05 27.7239 8.39233e-05 26V6.49994C8.39233e-05 4.77603 0.684906 3.12273 1.90389 1.90374C3.12288 0.684757 4.77618 -6.48499e-05 6.50009 -6.48499e-05H26.0001C27.724 -6.48499e-05 29.3773 0.684757 30.5963 1.90374C31.8153 3.12273 32.5001 4.77603 32.5001 6.49994V28.1125C32.4981 33.997 31.0436 39.7901 28.2656 44.9776C25.4876 50.1652 21.472 54.5867 16.5751 57.85L10.7251 61.75L7.18259 56.355L13.0001 52.455C16.379 50.1907 19.2486 47.2465 21.4254 43.8105C23.6023 40.3746 25.0386 36.5224 25.6426 32.5Z"/>
</mask>
<path d="M71.1427 32.5L72.1316 32.6485L72.3041 31.5H71.1427V32.5ZM76.0964 1.90374L75.3893 2.61085L75.3893 2.61085L76.0964 1.90374ZM78.0002 28.1125L79.0002 28.1128V28.1125H78.0002ZM73.7657 44.9776L74.6473 45.4497L74.6473 45.4497L73.7657 44.9776ZM62.0752 57.85L61.5207 57.0178L61.5184 57.0194L62.0752 57.85ZM56.2577 61.75L55.4241 62.3024L55.9795 63.1405L56.8146 62.5806L56.2577 61.75ZM52.6827 56.355L52.1259 55.5244L51.2997 56.0782L51.8491 56.9074L52.6827 56.355ZM58.5002 52.455L57.9435 51.6243L57.9434 51.6244L58.5002 52.455ZM25.6426 32.5L26.6315 32.6485L26.804 31.5H25.6426V32.5ZM32.5001 28.1125L33.5001 28.1128V28.1125H32.5001ZM28.2656 44.9776L29.1471 45.4497L29.1471 45.4497L28.2656 44.9776ZM16.5751 57.85L16.0206 57.0178L16.0204 57.0179L16.5751 57.85ZM10.7251 61.75L9.88919 62.2989L10.4419 63.1406L11.2798 62.5821L10.7251 61.75ZM7.18259 56.355L6.62575 55.5244L5.80303 56.0759L6.34668 56.9039L7.18259 56.355ZM13.0001 52.455L12.4434 51.6243L12.4433 51.6244L13.0001 52.455ZM52.0002 33.5H71.1427V31.5H52.0002V33.5ZM46.6969 31.3033C48.1034 32.7098 50.0111 33.5 52.0002 33.5V31.5C50.5415 31.5 49.1426 30.9205 48.1111 29.8891L46.6969 31.3033ZM44.5002 26C44.5002 27.9891 45.2904 29.8967 46.6969 31.3033L48.1111 29.8891C47.0797 28.8576 46.5002 27.4587 46.5002 26H44.5002ZM44.5002 6.49994V26H46.5002V6.49994H44.5002ZM46.6969 1.19664C45.2904 2.60316 44.5002 4.51081 44.5002 6.49994H46.5002C46.5002 5.04125 47.0797 3.6423 48.1111 2.61085L46.6969 1.19664ZM52.0002 -1.00006C50.0111 -1.00006 48.1034 -0.209885 46.6969 1.19664L48.1111 2.61085C49.1426 1.5794 50.5415 0.999935 52.0002 0.999935V-1.00006ZM71.5002 -1.00006H52.0002V0.999935H71.5002V-1.00006ZM76.8035 1.19664C75.397 -0.209886 73.4894 -1.00006 71.5002 -1.00006V0.999935C72.9589 0.999935 74.3579 1.5794 75.3893 2.61085L76.8035 1.19664ZM79.0002 6.49994C79.0002 4.51081 78.2101 2.60316 76.8035 1.19664L75.3893 2.61085C76.4208 3.6423 77.0002 5.04125 77.0002 6.49994H79.0002ZM79.0002 28.1125V6.49994H77.0002V28.1125H79.0002ZM74.6473 45.4497C77.503 40.1171 78.9982 34.162 79.0002 28.1128L77.0002 28.1121C76.9983 33.8321 75.5845 39.4631 72.8842 44.5055L74.6473 45.4497ZM62.6298 58.6821C67.6636 55.3276 71.7915 50.7824 74.6473 45.4497L72.8842 44.5055C70.1838 49.548 66.2806 53.8459 61.5207 57.0178L62.6298 58.6821ZM56.8146 62.5806L62.6321 58.6806L61.5184 57.0194L55.7009 60.9194L56.8146 62.5806ZM51.8491 56.9074L55.4241 62.3024L57.0913 61.1976L53.5163 55.8026L51.8491 56.9074ZM57.9434 51.6244L52.1259 55.5244L53.2396 57.1856L59.0571 53.2856L57.9434 51.6244ZM66.0808 43.2753C63.9784 46.5938 61.207 49.4374 57.9435 51.6243L59.0569 53.2857C62.5514 50.944 65.519 47.8991 67.7703 44.3457L66.0808 43.2753ZM70.1538 32.3515C69.5705 36.2363 68.1833 39.9569 66.0808 43.2753L67.7703 44.3457C70.0216 40.7923 71.507 36.8084 72.1316 32.6485L70.1538 32.3515ZM6.50009 33.5H25.6426V31.5H6.50009V33.5ZM1.19679 31.3033C2.60331 32.7098 4.51097 33.5 6.50009 33.5V31.5C5.0414 31.5 3.64245 30.9205 2.611 29.8891L1.19679 31.3033ZM-0.999916 26C-0.999916 27.9891 -0.209736 29.8967 1.19679 31.3033L2.611 29.8891C1.57955 28.8576 1.00008 27.4587 1.00008 26H-0.999916ZM-0.999916 6.49994V26H1.00008V6.49994H-0.999916ZM1.19679 1.19664C-0.209737 2.60316 -0.999916 4.51081 -0.999916 6.49994H1.00008C1.00008 5.04125 1.57955 3.6423 2.611 2.61085L1.19679 1.19664ZM6.50009 -1.00006C4.51097 -1.00006 2.60331 -0.209886 1.19679 1.19664L2.611 2.61085C3.64245 1.5794 5.0414 0.999935 6.50009 0.999935V-1.00006ZM26.0001 -1.00006H6.50009V0.999935H26.0001V-1.00006ZM31.3034 1.19664C29.8969 -0.209886 27.9892 -1.00006 26.0001 -1.00006V0.999935C27.4588 0.999935 28.8578 1.5794 29.8892 2.61085L31.3034 1.19664ZM33.5001 6.49994C33.5001 4.51081 32.7099 2.60316 31.3034 1.19664L29.8892 2.61085C30.9207 3.6423 31.5001 5.04125 31.5001 6.49994H33.5001ZM33.5001 28.1125V6.49994H31.5001V28.1125H33.5001ZM29.1471 45.4497C32.0029 40.1171 33.4981 34.162 33.5001 28.1128L31.5001 28.1121C31.4982 33.8321 30.0844 39.4631 27.384 44.5055L29.1471 45.4497ZM17.1296 58.6821C22.1635 55.3276 26.2914 50.7824 29.1471 45.4497L27.384 44.5055C24.6837 49.548 20.7804 53.8459 16.0206 57.0178L17.1296 58.6821ZM11.2798 62.5821L17.1298 58.682L16.0204 57.0179L10.1704 60.9179L11.2798 62.5821ZM6.34668 56.9039L9.88919 62.2989L11.561 61.2011L8.01849 55.8061L6.34668 56.9039ZM12.4433 51.6244L6.62575 55.5244L7.73943 57.1856L13.5569 53.2856L12.4433 51.6244ZM20.5807 43.2753C18.4783 46.5938 15.7068 49.4374 12.4434 51.6243L13.5568 53.2857C17.0513 50.944 20.0189 47.8991 22.2702 44.3457L20.5807 43.2753ZM24.6537 32.3515C24.0703 36.2363 22.6831 39.9569 20.5807 43.2753L22.2702 44.3457C24.5215 40.7923 26.0069 36.8084 26.6315 32.6485L24.6537 32.3515Z" fill="#C9BFFF" mask="url(#path-1-inside-1_965_12358)"/>
</svg>
